<svg
  xmlns="http://www.w3.org/2000/svg"
  xmlns:xlink="http://www.w3.org/1999/xlink"
  width="500"
  zoomAndPan="magnify"
  viewBox="0 0 375 374.999991"
  height="500"
  preserveAspectRatio="xMidYMid meet"
  version="1.0"
>
  <defs>
    <clipPath id="cbc663f5ed">
      <path
        d="M 71.078125 21 L 303.578125 21 L 303.578125 353.886719 L 71.078125 353.886719 Z M 71.078125 21 "
        clip-rule="nonzero"
      />
    </clipPath>
  </defs>
  <g clip-path="url(#cbc663f5ed)">
    <path
      fill="#ffffff"
      d="M 107.324219 137.417969 C 107.324219 93.207031 143.144531 57.355469 187.328125 57.355469 C 231.511719 57.355469 267.335938 93.207031 267.335938 137.417969 C 267.335938 181.644531 231.511719 217.492188 187.328125 217.492188 C 143.144531 217.492188 107.324219 181.644531 107.324219 137.417969 Z M 187.328125 353.597656 L 244.835938 238.5 C 279.90625 218.476562 303.5625 180.722656 303.5625 137.417969 C 303.5625 73.171875 251.535156 21.089844 187.328125 21.089844 C 123.128906 21.089844 71.09375 73.171875 71.09375 137.417969 C 71.09375 180.722656 94.753906 218.476562 129.828125 238.5 L 187.328125 353.597656 "
      fill-opacity="1"
      fill-rule="nonzero"
    />
  </g>
  <path
    fill="#ffffff"
    d="M 218.789062 172.804688 L 219.921875 171.699219 L 222.851562 174.726562 L 223.96875 173.644531 L 221.007812 170.617188 L 222.164062 169.507812 C 222.0625 169.316406 221.96875 169.070312 221.804688 168.824219 L 221.738281 168.652344 L 221.710938 168.59375 C 221.636719 168.476562 221.5625 168.367188 221.5 168.253906 L 221.417969 168.097656 L 242.820312 159.527344 L 237.339844 153.886719 L 214.570312 158.117188 C 211.695312 154.324219 209.199219 151.183594 209.199219 151.183594 L 192.222656 133.714844 L 256.886719 104.832031 L 252.308594 100.128906 L 229.917969 102.375 L 223.851562 96.148438 C 223.222656 95.480469 222.449219 95.0625 221.644531 94.832031 L 215.753906 100.605469 C 215.941406 101.40625 216.378906 102.1875 216.988281 102.832031 L 217.738281 103.597656 L 210.25 104.355469 L 204.84375 104.890625 L 199.191406 99.101562 C 198.542969 98.453125 197.765625 98.015625 196.980469 97.804688 L 191.101562 103.535156 C 191.277344 104.355469 191.683594 105.121094 192.347656 105.785156 L 192.683594 106.128906 L 167.804688 108.644531 L 148.921875 89.230469 C 148.726562 89.042969 148.496094 88.832031 148.265625 88.640625 L 148.082031 88.488281 C 147.84375 88.296875 147.609375 88.128906 147.359375 87.9375 L 147.238281 87.859375 C 146.902344 87.628906 146.566406 87.421875 146.21875 87.191406 L 146.144531 87.136719 C 145.792969 86.925781 145.429688 86.714844 145.035156 86.492188 L 144.960938 86.492188 C 142.90625 85.382812 140.582031 84.507812 138.828125 84.492188 L 138.71875 84.492188 C 138.585938 84.492188 138.472656 84.492188 138.375 84.507812 L 138.199219 84.523438 L 138.183594 84.546875 C 138.109375 84.546875 138.050781 84.546875 137.953125 84.546875 L 137.785156 84.585938 L 137.566406 84.679688 L 137.386719 84.753906 L 137.347656 84.773438 L 137.328125 84.773438 C 137.097656 84.867188 136.917969 84.984375 136.757812 85.15625 C 136.597656 85.304688 136.453125 85.535156 136.347656 85.765625 C 136.339844 85.824219 136.269531 85.859375 136.265625 85.953125 C 136.183594 86.148438 136.128906 86.351562 136.128906 86.566406 L 136.082031 86.753906 C 135.714844 89.898438 138.640625 95.480469 140.519531 97.40625 L 159.429688 116.816406 L 156.257812 141.640625 L 155.925781 141.253906 C 155.296875 140.644531 154.554688 140.246094 153.800781 140 L 147.84375 145.808594 C 148.027344 146.589844 148.421875 147.335938 149.050781 147.964844 L 154.707031 153.792969 L 153.058594 166.632812 L 152.328125 165.871094 C 151.753906 165.316406 151.082031 164.898438 150.367188 164.671875 L 144.3125 170.578125 C 144.507812 171.28125 144.882812 171.984375 145.433594 172.558594 L 151.53125 178.785156 L 148.691406 201.128906 L 153.277344 205.855469 L 183.847656 141.90625 L 200.804688 159.355469 C 200.804688 159.355469 203.894531 161.949219 207.601562 164.898438 L 202.769531 187.566406 L 208.25 193.203125 L 217.386719 172.023438 C 217.886719 172.308594 218.378906 172.617188 218.789062 172.804688 "
    fill-opacity="1"
    fill-rule="nonzero"
  />
</svg>