<svg
  xmlns="http://www.w3.org/2000/svg"
  xmlns:xlink="http://www.w3.org/1999/xlink"
  width="500"
  zoomAndPan="magnify"
  viewBox="0 0 375 374.999991"
  height="500"
  preserveAspectRatio="xMidYMid meet"
  version="1.0"
>
  <defs>
    <clipPath id="1840ad7894">
      <path
        d="M 94.945312 47 L 279.445312 47 L 279.445312 311.664062 L 94.945312 311.664062 Z M 94.945312 47 "
        clip-rule="nonzero"
      />
    </clipPath>
  </defs>
  <g clip-path="url(#1840ad7894)">
    <path
      fill="#15803d"
      d="M 123.707031 139.558594 C 123.707031 104.414062 152.132812 75.910156 187.195312 75.910156 C 222.257812 75.910156 250.6875 104.414062 250.6875 139.558594 C 250.6875 174.71875 222.257812 203.222656 187.195312 203.222656 C 152.132812 203.222656 123.707031 174.71875 123.707031 139.558594 Z M 187.195312 311.425781 L 232.828125 219.921875 C 260.660156 204.003906 279.433594 173.988281 279.433594 139.558594 C 279.433594 88.484375 238.144531 47.078125 187.195312 47.078125 C 136.25 47.078125 94.957031 88.484375 94.957031 139.558594 C 94.957031 173.988281 113.734375 204.003906 141.566406 219.921875 L 187.195312 311.425781 "
      fill-opacity="1"
      fill-rule="nonzero"
    />
  </g>
  <path
    fill="#15803d"
    d="M 212.160156 167.691406 L 213.058594 166.8125 L 215.382812 169.222656 L 216.269531 168.359375 L 213.921875 165.953125 L 214.839844 165.074219 C 214.757812 164.921875 214.683594 164.726562 214.554688 164.53125 L 214.503906 164.394531 L 214.480469 164.347656 C 214.421875 164.253906 214.359375 164.164062 214.3125 164.074219 L 214.246094 163.953125 L 231.230469 157.136719 L 226.882812 152.652344 L 208.8125 156.019531 C 206.53125 153 204.550781 150.503906 204.550781 150.503906 L 191.082031 136.617188 L 242.394531 113.65625 L 238.761719 109.914062 L 220.992188 111.703125 L 216.175781 106.75 C 215.679688 106.222656 215.066406 105.886719 214.425781 105.707031 L 209.753906 110.292969 C 209.902344 110.929688 210.25 111.550781 210.734375 112.066406 L 211.328125 112.671875 L 205.386719 113.277344 L 201.09375 113.703125 L 196.609375 109.097656 C 196.097656 108.585938 195.476562 108.234375 194.855469 108.070312 L 190.191406 112.625 C 190.328125 113.277344 190.652344 113.886719 191.179688 114.414062 L 191.445312 114.6875 L 171.703125 116.6875 L 156.71875 101.25 C 156.5625 101.101562 156.378906 100.9375 156.195312 100.785156 L 156.054688 100.660156 C 155.863281 100.511719 155.675781 100.375 155.476562 100.226562 L 155.382812 100.164062 C 155.117188 99.980469 154.851562 99.8125 154.574219 99.632812 L 154.511719 99.589844 C 154.234375 99.417969 153.945312 99.253906 153.632812 99.074219 L 153.574219 99.074219 C 151.945312 98.195312 150.101562 97.496094 148.707031 97.484375 L 148.621094 97.484375 C 148.515625 97.484375 148.425781 97.484375 148.347656 97.496094 L 148.207031 97.511719 L 148.195312 97.53125 C 148.136719 97.53125 148.089844 97.53125 148.015625 97.53125 L 147.882812 97.558594 L 147.707031 97.632812 L 147.5625 97.695312 L 147.535156 97.710938 L 147.519531 97.710938 C 147.335938 97.785156 147.191406 97.875 147.066406 98.011719 C 146.9375 98.132812 146.824219 98.3125 146.738281 98.496094 C 146.734375 98.542969 146.679688 98.574219 146.671875 98.644531 C 146.609375 98.800781 146.566406 98.964844 146.566406 99.132812 L 146.53125 99.285156 C 146.234375 101.78125 148.558594 106.222656 150.050781 107.75 L 165.054688 123.183594 L 162.539062 142.917969 L 162.277344 142.613281 C 161.777344 142.128906 161.1875 141.808594 160.589844 141.617188 L 155.863281 146.234375 C 156.007812 146.855469 156.320312 147.445312 156.820312 147.945312 L 161.308594 152.578125 L 160 162.785156 L 159.421875 162.183594 C 158.964844 161.742188 158.433594 161.410156 157.863281 161.226562 L 153.058594 165.921875 C 153.214844 166.480469 153.515625 167.042969 153.949219 167.496094 L 158.789062 172.449219 L 156.535156 190.210938 L 160.175781 193.96875 L 184.433594 143.128906 L 197.886719 157 C 197.886719 157 200.339844 159.0625 203.285156 161.410156 L 199.449219 179.429688 L 203.796875 183.914062 L 211.046875 167.074219 C 211.445312 167.296875 211.835938 167.542969 212.160156 167.691406 "
    fill-opacity="1"
    fill-rule="nonzero"
  />
</svg>